<svg width="50" height="50" viewBox="0 0 50 50" fill="none" xmlns="http://www.w3.org/2000/svg">
<path fill-rule="evenodd" clip-rule="evenodd" d="M24.9999 6.25004C14.6446 6.25004 6.24992 14.6447 6.24992 25C6.24992 35.3554 14.6446 43.75 24.9999 43.75C35.3553 43.75 43.7499 35.3554 43.7499 25C43.7499 14.6447 35.3553 6.25004 24.9999 6.25004ZM2.08325 25C2.08325 12.3435 12.3434 2.08337 24.9999 2.08337C37.6564 2.08337 47.9166 12.3435 47.9166 25C47.9166 37.6566 37.6564 47.9167 24.9999 47.9167C12.3434 47.9167 2.08325 37.6566 2.08325 25Z" fill="#492D25"/>
<path fill-rule="evenodd" clip-rule="evenodd" d="M25.5376 16.7174C24.5678 16.551 23.5704 16.7333 22.722 17.2319C21.8737 17.7304 21.2292 18.5132 20.9026 19.4414C20.5208 20.5268 19.3314 21.0971 18.246 20.7153C17.1606 20.3335 16.5903 19.1441 16.9721 18.0587C17.6251 16.2022 18.9142 14.6368 20.6108 13.6396C22.3075 12.6425 24.3023 12.278 26.242 12.6107C28.1817 12.9434 29.941 13.9518 31.2084 15.4574C32.4755 16.9627 33.1692 18.8677 33.1665 20.8353C33.1656 24.0235 30.8018 26.129 29.1138 27.2543C28.2062 27.8594 27.3135 28.3042 26.6559 28.5965C26.3241 28.744 26.0447 28.8559 25.8434 28.9326C25.7426 28.971 25.6608 29.0008 25.6013 29.0219L25.529 29.0473L25.5059 29.0551L25.4978 29.0579L25.4946 29.0589C25.494 29.0591 25.492 29.0598 24.8332 27.0834L25.492 29.0598C24.4004 29.4237 23.2206 28.8337 22.8568 27.7422C22.4932 26.6514 23.082 25.4724 24.1722 25.1077L24.1695 25.1086C24.1697 25.1085 24.1699 25.1085 24.1722 25.1077L24.2054 25.096C24.2375 25.0846 24.29 25.0656 24.3601 25.0389C24.5006 24.9854 24.7095 24.9019 24.9636 24.789C25.4779 24.5604 26.1476 24.2241 26.8026 23.7874C28.2392 22.8297 28.9999 21.8107 28.9999 20.8334L28.9999 20.8303C29.0013 19.8463 28.6545 18.8935 28.0208 18.1407C27.3871 17.388 26.5074 16.8837 25.5376 16.7174Z" fill="#492D25"/>
<path fill-rule="evenodd" clip-rule="evenodd" d="M22.9167 35.4167C22.9167 34.2661 23.8495 33.3334 25.0001 33.3334H25.0209C26.1715 33.3334 27.1042 34.2661 27.1042 35.4167C27.1042 36.5673 26.1715 37.5 25.0209 37.5H25.0001C23.8495 37.5 22.9167 36.5673 22.9167 35.4167Z" fill="#492D25"/>
</svg>
