<svg width="50" height="50" viewBox="0 0 50 50" fill="none" xmlns="http://www.w3.org/2000/svg">
<path fill-rule="evenodd" clip-rule="evenodd" d="M24.0682 2.30332C24.6547 2.01006 25.3451 2.01006 25.9316 2.30332L46.7649 12.72C47.4707 13.0729 47.9166 13.7943 47.9166 14.5834C47.9166 15.3725 47.4707 16.0939 46.7649 16.4468L25.9316 26.8634C25.3451 27.1567 24.6547 27.1567 24.0682 26.8634L3.23489 16.4468C2.52909 16.0939 2.08325 15.3725 2.08325 14.5834C2.08325 13.7943 2.52909 13.0729 3.23489 12.72L24.0682 2.30332ZM8.82506 14.5834L24.9999 22.6708L41.1748 14.5834L24.9999 6.49595L8.82506 14.5834Z" fill="#492D25"/>
<path fill-rule="evenodd" clip-rule="evenodd" d="M2.30329 34.485C2.81785 33.4559 4.06925 33.0387 5.09837 33.5533L25 43.5041L44.9016 33.5533C45.9308 33.0387 47.1822 33.4559 47.6967 34.485C48.2113 35.5141 47.7942 36.7655 46.765 37.2801L25.9317 47.6967C25.3452 47.99 24.6548 47.99 24.0683 47.6967L3.23498 37.2801C2.20586 36.7655 1.78872 35.5141 2.30329 34.485Z" fill="#492D25"/>
<path fill-rule="evenodd" clip-rule="evenodd" d="M2.30329 24.0684C2.81785 23.0392 4.06925 22.6221 5.09837 23.1367L25 33.0875L44.9016 23.1367C45.9308 22.6221 47.1822 23.0392 47.6967 24.0684C48.2113 25.0975 47.7942 26.3489 46.765 26.8634L25.9317 37.2801C25.3452 37.5734 24.6548 37.5734 24.0683 37.2801L3.23498 26.8634C2.20586 26.3489 1.78872 25.0975 2.30329 24.0684Z" fill="#492D25"/>
</svg>
