<svg width="50" height="50" viewBox="0 0 50 50" fill="none" xmlns="http://www.w3.org/2000/svg">
<path fill-rule="evenodd" clip-rule="evenodd" d="M23.721 2.52222C24.4734 1.93709 25.5268 1.93709 26.2791 2.52222L45.0291 17.1056C45.5366 17.5003 45.8334 18.1071 45.8334 18.75V41.6667C45.8334 43.3243 45.1749 44.914 44.0028 46.0861C42.8307 47.2582 41.241 47.9167 39.5834 47.9167H10.4167C8.75914 47.9167 7.16943 47.2582 5.99733 46.0861C4.82523 44.914 4.16675 43.3243 4.16675 41.6667V18.75C4.16675 18.1071 4.46357 17.5003 4.97104 17.1056L23.721 2.52222ZM8.33342 19.769V41.6667C8.33342 42.2192 8.55291 42.7491 8.94361 43.1398C9.33431 43.5305 9.86421 43.75 10.4167 43.75H39.5834C40.1359 43.75 40.6659 43.5305 41.0566 43.1398C41.4473 42.7491 41.6668 42.2192 41.6668 41.6667V19.769L25.0001 6.806L8.33342 19.769Z" fill="#492D25"/>
<path fill-rule="evenodd" clip-rule="evenodd" d="M28.5034 26.9231C33.887 24.028 40.1745 24.1444 44.2923 25.0595L43.2077 29.9404C39.8255 29.1888 34.863 29.1803 30.8716 31.3268C27.1177 33.3455 23.75 37.5213 23.75 46.25H18.75C18.75 35.9786 22.8823 29.9461 28.5034 26.9231Z" fill="#492D25"/>
</svg>
