<svg width="50" height="50" viewBox="0 0 50 50" fill="none" xmlns="http://www.w3.org/2000/svg">
<path fill-rule="evenodd" clip-rule="evenodd" d="M24.9999 6.25004C14.6446 6.25004 6.24992 14.6447 6.24992 25C6.24992 35.3554 14.6446 43.75 24.9999 43.75C35.3553 43.75 43.7499 35.3554 43.7499 25C43.7499 14.6447 35.3553 6.25004 24.9999 6.25004ZM2.08325 25C2.08325 12.3435 12.3434 2.08337 24.9999 2.08337C37.6564 2.08337 47.9166 12.3435 47.9166 25C47.9166 37.6566 37.6564 47.9167 24.9999 47.9167C12.3434 47.9167 2.08325 37.6566 2.08325 25Z" fill="#492D25"/>
<path fill-rule="evenodd" clip-rule="evenodd" d="M25.0001 22.9166C26.1507 22.9166 27.0834 23.8494 27.0834 25V33.3333C27.0834 34.4839 26.1507 35.4166 25.0001 35.4166C23.8495 35.4166 22.9167 34.4839 22.9167 33.3333V25C22.9167 23.8494 23.8495 22.9166 25.0001 22.9166Z" fill="#492D25"/>
<path fill-rule="evenodd" clip-rule="evenodd" d="M22.9167 16.6667C22.9167 15.5161 23.8495 14.5834 25.0001 14.5834H25.0209C26.1715 14.5834 27.1042 15.5161 27.1042 16.6667C27.1042 17.8173 26.1715 18.75 25.0209 18.75H25.0001C23.8495 18.75 22.9167 17.8173 22.9167 16.6667Z" fill="#492D25"/>
</svg>
